<svg width="4740" height="94" viewBox="0 0 4740 94" fill="none" xmlns="http://www.w3.org/2000/svg">
<path d="M0 37C0 23.1929 11.1929 12 25 12H2313V12C2316.67 12 2320.02 14.0981 2321.61 17.401L2322.75 19.75L2325.5 28L2328.5 37.5L2332.3 49.3168C2332.77 50.7692 2333.36 52.1758 2334.09 53.5191L2335.36 55.8827C2336.12 57.291 2337.01 58.6232 2338.02 59.8612L2339.74 61.9641C2340.58 62.9864 2341.5 63.9408 2342.48 64.8184L2343.44 65.6694C2344.81 66.8861 2346.31 67.9487 2347.91 68.8381L2350 70L2350.17 70.0849C2352.7 71.3524 2355.44 72.1796 2358.25 72.5312L2362 73H2370H2374.5H2377.34C2378.78 73 2380.21 72.8763 2381.63 72.6303L2383.19 72.3587C2384.56 72.12 2385.91 71.7669 2387.22 71.3032L2387.52 71.1998C2388.84 70.7341 2390.11 70.1584 2391.34 69.4789L2391.79 69.2275C2393.26 68.4113 2394.64 67.4489 2395.92 66.355L2397.5 65L2401.25 60.9142C2402.41 59.6415 2403.44 58.2514 2404.32 56.7661L2405.45 54.8626C2406.48 53.1273 2407.29 51.2738 2407.88 49.3427L2411 39L2416.09 21.8277C2417.82 15.9987 2423.17 12 2429.25 12V12H2440.5H2561H4715C4728.81 12 4740 23.1929 4740 37V69C4740 82.8071 4728.81 94 4715 94H2370H25C11.1929 94 0 82.8071 0 69V37Z" fill="black"/>
<path d="M2338.5 22.5L2337.81 24.796C2337.27 26.593 2336.94 28.4449 2336.81 30.3168L2336.5 35L2337.07 38.6727C2337.35 40.5514 2337.86 42.3911 2338.56 44.156L2339.34 46.1035C2340.11 48.027 2341.12 49.8475 2342.33 51.523L2344.5 54.5L2346.83 57.1191C2347.94 58.3699 2349.17 59.5059 2350.51 60.51L2351.85 61.5161C2353.61 62.833 2355.53 63.9129 2357.57 64.728L2359.5 65.5L2362.09 66.2763C2363.69 66.7576 2365.34 67.0764 2367.01 67.228L2370 67.5L2375.21 66.8869C2377.39 66.6301 2379.53 66.0865 2381.57 65.2701L2383.5 64.5L2386.16 63.0201C2387.39 62.3412 2388.55 61.5611 2389.64 60.6879L2391.4 59.2775C2392.47 58.4273 2393.46 57.4916 2394.37 56.4799L2395.78 54.909C2396.92 53.6397 2397.93 52.2567 2398.79 50.7816L2399.7 49.2357C2400.56 47.7492 2401.27 46.1772 2401.82 44.5446L2402.03 43.9197C2402.67 41.9806 2403.08 39.9694 2403.24 37.9314L2403.5 34.5L2403 28L2402.67 25.8267C2402.23 22.964 2401.29 20.1996 2399.9 17.6569L2399 16L2396.54 12.6224C2395.52 11.2114 2394.35 9.91159 2393.05 8.74438L2391.91 7.71806C2390.64 6.57569 2389.26 5.56638 2387.78 4.70594L2386.24 3.80414C2384.75 2.93703 2383.18 2.22572 2381.54 1.68153L2381.09 1.53088C2379.04 0.846524 2376.91 0.431646 2374.75 0.296651L2370 0L2366.14 0.275785C2364.05 0.424674 2362 0.834331 2360.01 1.49517L2358.42 2.02677C2356.48 2.67315 2354.63 3.55491 2352.9 4.65231L2351.69 5.42454C2350.57 6.14037 2349.5 6.94503 2348.5 7.83084L2347.52 8.70461C2346.18 9.89806 2344.97 11.2327 2343.91 12.6855L2341.5 16L2339.5 19.75L2338.5 22.5Z" fill="black"/>
</svg>
